umbra-9.ufo
<glyph name="quotedbl" format="1">
  <advance width="390"/>
  <unicode hex="0022"/>
  <outline>
    <contour>
      <point x="-25" y="439" type="line"/>
      <point x="-55" y="649" type="line"/>
      <point x="75" y="649" type="line"/>
      <point x="45" y="439" type="line"/>
    </contour>
    <contour>
      <point x="145" y="439" type="line"/>
      <point x="115" y="649" type="line"/>
      <point x="245" y="649" type="line"/>
      <point x="215" y="439" type="line"/>
    </contour>
  </outline>
</glyph>
<glyph name="quotesingle" format="1">
  <advance width="220"/>
  <unicode hex="0027"/>
  <outline>
    <contour>
      <point x="-55" y="389" type="line"/>
      <point x="-55" y="649" type="line"/>
      <point x="75" y="649" type="line"/>
      <point x="75" y="509" type="line"/>
    </contour>
  </outline>
</glyph>
<glyph name="parenright" format="1">
  <advance width="232"/>
  <unicode hex="0029"/>
  <outline>
    <contour>
      <point x="-10" y="700" type="line"/>
      <point x="65" y="615"/>
      <point x="102" y="510"/>
      <point x="102" y="405" type="curve" smooth="yes"/>
      <point x="102" y="300"/>
      <point x="65" y="195"/>
      <point x="-10" y="110" type="curve"/>
      <point x="-100" y="110" type="line"/>
      <point x="-50" y="185"/>
      <point x="-26" y="295"/>
      <point x="-26" y="405" type="curve" smooth="yes"/>
      <point x="-26" y="515"/>
      <point x="-50" y="625"/>
      <point x="-100" y="700" type="curve"/>
    </contour>
  </outline>
</glyph>
<glyph name="plus" format="1">
  <advance width="560"/>
  <unicode hex="002B"/>
  <outline>
    <contour>
      <point x="-15" y="339" type="line"/>
      <point x="-15" y="449" type="line"/>
      <point x="110" y="449" type="line"/>
      <point x="110" y="569" type="line"/>
      <point x="250" y="569" type="line"/>
      <point x="250" y="449" type="line"/>
      <point x="375" y="449" type="line"/>
      <point x="375" y="339" type="line"/>
      <point x="250" y="339" type="line"/>
      <point x="250" y="219" type="line"/>
      <point x="110" y="219" type="line"/>
      <point x="110" y="339" type="line"/>
    </contour>
  </outline>
</glyph>
<glyph name="one" format="1">
  <advance width="230"/>
  <unicode hex="0031"/>
  <outline>
    <contour>
      <point x="-55" y="149" type="line"/>
      <point x="-55" y="599" type="line"/>
      <point x="85" y="679" type="line"/>
      <point x="85" y="149" type="line"/>
    </contour>
  </outline>
</glyph>
<glyph name="seven" format="1">
  <advance width="455"/>
  <unicode hex="0037"/>
  <outline>
    <contour>
      <point x="335" y="649" type="line"/>
      <point x="334" y="509"/>
      <point x="157" y="456"/>
      <point x="157" y="146" type="curve"/>
      <point x="22" y="148" type="line"/>
      <point x="22" y="367"/>
      <point x="109" y="447"/>
      <point x="168" y="529" type="curve"/>
      <point x="-75" y="529" type="line"/>
      <point x="-75" y="649" type="line"/>
    </contour>
  </outline>
</glyph>
<glyph name="nine" format="1">
  <advance width="474"/>
  <unicode hex="0039"/>
  <outline>
    <contour>
      <point x="199" y="487" type="curve" smooth="yes"/>
      <point x="199" y="515"/>
      <point x="180" y="544"/>
      <point x="132" y="544" type="curve" smooth="yes"/>
      <point x="84" y="544"/>
      <point x="65" y="515"/>
      <point x="65" y="487" type="curve" smooth="yes"/>
      <point x="65" y="459"/>
      <point x="84" y="430"/>
      <point x="132" y="430" type="curve" smooth="yes"/>
      <point x="180" y="430"/>
      <point x="199" y="459"/>
    </contour>
    <contour>
      <point x="-65" y="487" type="curve" smooth="yes"/>
      <point x="-65" y="594"/>
      <point x="10" y="659"/>
      <point x="127" y="659" type="curve" smooth="yes"/>
      <point x="284" y="659"/>
      <point x="339" y="534"/>
      <point x="339" y="417" type="curve" smooth="yes"/>
      <point x="339" y="290"/>
      <point x="263" y="139"/>
      <point x="126" y="139" type="curve" smooth="yes"/>
      <point x="49" y="139"/>
      <point x="-21" y="174"/>
      <point x="-61" y="221" type="curve"/>
      <point x="-20" y="327" type="line"/>
      <point x="20" y="289"/>
      <point x="57" y="259"/>
      <point x="105" y="259" type="curve" smooth="yes"/>
      <point x="173" y="259"/>
      <point x="202" y="318"/>
      <point x="208" y="386" type="curve"/>
      <point x="178" y="349"/>
      <point x="132" y="335"/>
      <point x="97" y="335" type="curve" smooth="yes"/>
      <point x="30" y="335"/>
      <point x="-65" y="380"/>
    </contour>
  </outline>
</glyph>
<glyph name="colon" format="1">
  <advance width="291"/>
  <unicode hex="003A"/>
  <outline>
    <contour>
      <point x="45" y="406" type="line"/>
      <point x="-60" y="511" type="line"/>
      <point x="45" y="617" type="line"/>
      <point x="151" y="511" type="line"/>
    </contour>
    <contour>
      <point x="45" y="121" type="line"/>
      <point x="-60" y="226" type="line"/>
      <point x="45" y="332" type="line"/>
      <point x="151" y="226" type="line"/>
    </contour>
  </outline>
</glyph>
<glyph name="question" format="1">
  <advance width="464"/>
  <unicode hex="003F"/>
  <outline>
    <contour>
      <point x="67" y="353" type="line"/>
      <point x="37" y="453" type="line"/>
      <point x="107" y="453" type="line" smooth="yes"/>
      <point x="155" y="453"/>
      <point x="164" y="478"/>
      <point x="164" y="506" type="curve" smooth="yes"/>
      <point x="164" y="529"/>
      <point x="150" y="544"/>
      <point x="122" y="544" type="curve" smooth="yes"/>
      <point x="74" y="544"/>
      <point x="26" y="505"/>
      <point x="-14" y="467" type="curve"/>
      <point x="-54" y="577" type="line"/>
      <point x="-4" y="634"/>
      <point x="56" y="664"/>
      <point x="123" y="664" type="curve" smooth="yes"/>
      <point x="230" y="664"/>
      <point x="315" y="619"/>
      <point x="315" y="522" type="curve" smooth="yes"/>
      <point x="315" y="447"/>
      <point x="267" y="414"/>
      <point x="192" y="403" type="curve"/>
      <point x="177" y="353" type="line"/>
    </contour>
    <contour>
      <point x="125" y="121" type="line"/>
      <point x="20" y="226" type="line"/>
      <point x="125" y="332" type="line"/>
      <point x="231" y="226" type="line"/>
    </contour>
  </outline>
</glyph>
<glyph name="A" format="1">
  <advance width="580"/>
  <unicode hex="0041"/>
  <outline>
    <contour>
      <point x="-90" y="149" type="line"/>
      <point x="110" y="649" type="line"/>
      <point x="270" y="649" type="line"/>
      <point x="470" y="149" type="line"/>
      <point x="320" y="149" type="line"/>
      <point x="289" y="234" type="line"/>
      <point x="91" y="234" type="line"/>
      <point x="60" y="149" type="line"/>
    </contour>
    <contour>
      <point x="190" y="510" type="line"/>
      <point x="132" y="349" type="line"/>
      <point x="248" y="349" type="line"/>
    </contour>
  </outline>
</glyph>
<glyph name="E" format="1">
  <advance width="455"/>
  <unicode hex="0045"/>
  <outline>
    <contour>
      <point x="-55" y="149" type="curve"/>
      <point x="-55" y="649" type="line"/>
      <point x="72" y="649"/>
      <point x="198" y="649"/>
      <point x="325" y="649" type="curve"/>
      <point x="325" y="534" type="line"/>
      <point x="85" y="534" type="line"/>
      <point x="85" y="459" type="line"/>
      <point x="295" y="459" type="line"/>
      <point x="295" y="344" type="line"/>
      <point x="85" y="344" type="line"/>
      <point x="85" y="269" type="line"/>
      <point x="325" y="269" type="line"/>
      <point x="325" y="149" type="line"/>
      <point x="198" y="149"/>
      <point x="72" y="149"/>
    </contour>
  </outline>
</glyph>
<glyph name="G" format="1">
  <advance width="555"/>
  <unicode hex="0047"/>
  <outline>
    <contour>
      <point x="75" y="399" type="curve" smooth="yes"/>
      <point x="75" y="306"/>
      <point x="148" y="254"/>
      <point x="205" y="254" type="curve" smooth="yes"/>
      <point x="239" y="254"/>
      <point x="267" y="261"/>
      <point x="290" y="273" type="curve"/>
      <point x="290" y="344" type="line"/>
      <point x="180" y="344" type="line"/>
      <point x="180" y="439" type="line"/>
      <point x="420" y="439" type="line"/>
      <point x="420" y="223" type="line"/>
      <point x="368" y="171"/>
      <point x="286" y="129"/>
      <point x="205" y="129" type="curve" smooth="yes"/>
      <point x="50" y="129"/>
      <point x="-70" y="250"/>
      <point x="-70" y="399" type="curve" smooth="yes"/>
      <point x="-70" y="548"/>
      <point x="40" y="669"/>
      <point x="215" y="669" type="curve" smooth="yes"/>
      <point x="296" y="669"/>
      <point x="343" y="647"/>
      <point x="375" y="615" type="curve"/>
      <point x="335" y="488" type="line"/>
      <point x="310" y="521"/>
      <point x="266" y="544"/>
      <point x="205" y="544" type="curve" smooth="yes"/>
      <point x="148" y="544"/>
      <point x="75" y="492"/>
    </contour>
  </outline>
</glyph>
<glyph name="L" format="1">
  <advance width="445"/>
  <unicode hex="004C"/>
  <outline>
    <contour>
      <point x="-55" y="149" type="curve"/>
      <point x="-55" y="649" type="line"/>
      <point x="85" y="649" type="line"/>
      <point x="85" y="269" type="line"/>
      <point x="325" y="269" type="line"/>
      <point x="325" y="149" type="line"/>
      <point x="198" y="149"/>
      <point x="72" y="149"/>
    </contour>
  </outline>
</glyph>
<glyph name="R" format="1">
  <advance width="515"/>
  <unicode hex="0052"/>
  <outline>
    <contour>
      <point x="-55" y="149" type="line"/>
      <point x="-55" y="649" type="line"/>
      <point x="18" y="649"/>
      <point x="92" y="649"/>
      <point x="165" y="649" type="curve" smooth="yes"/>
      <point x="282" y="649"/>
      <point x="367" y="604"/>
      <point x="367" y="477" type="curve" smooth="yes"/>
      <point x="367" y="398"/>
      <point x="320" y="357"/>
      <point x="248" y="342" type="curve"/>
      <point x="395" y="149" type="line"/>
      <point x="235" y="149" type="line"/>
      <point x="85" y="339" type="line"/>
      <point x="85" y="149" type="line"/>
    </contour>
    <contour>
      <point x="152" y="534" type="curve" smooth="yes"/>
      <point x="85" y="534" type="line"/>
      <point x="85" y="419" type="line"/>
      <point x="152" y="419" type="line" smooth="yes"/>
      <point x="190" y="419"/>
      <point x="222" y="429"/>
      <point x="222" y="477" type="curve" smooth="yes"/>
      <point x="222" y="525"/>
      <point x="190" y="534"/>
    </contour>
  </outline>
</glyph>
<glyph name="S" format="1">
  <advance width="449"/>
  <unicode hex="0053"/>
  <outline>
    <contour>
      <point x="179" y="299" type="curve" smooth="yes"/>
      <point x="179" y="359"/>
      <point x="-54" y="362"/>
      <point x="-54" y="512" type="curve" smooth="yes"/>
      <point x="-54" y="609"/>
      <point x="31" y="664"/>
      <point x="138" y="664" type="curve" smooth="yes"/>
      <point x="205" y="664"/>
      <point x="265" y="634"/>
      <point x="315" y="577" type="curve"/>
      <point x="275" y="467" type="line"/>
      <point x="235" y="505"/>
      <point x="187" y="544"/>
      <point x="139" y="544" type="curve" smooth="yes"/>
      <point x="111" y="544"/>
      <point x="101" y="530"/>
      <point x="101" y="512" type="curve" smooth="yes"/>
      <point x="101" y="452"/>
      <point x="324" y="445"/>
      <point x="324" y="301" type="curve" smooth="yes"/>
      <point x="324" y="174"/>
      <point x="229" y="134"/>
      <point x="122" y="134" type="curve" smooth="yes"/>
      <point x="25" y="134"/>
      <point x="-45" y="169"/>
      <point x="-85" y="216" type="curve"/>
      <point x="-45" y="331" type="line"/>
      <point x="-5" y="293"/>
      <point x="64" y="259"/>
      <point x="112" y="259" type="curve" smooth="yes"/>
      <point x="150" y="259"/>
      <point x="179" y="268"/>
    </contour>
  </outline>
</glyph>
<glyph name="Y" format="1">
  <advance width="540"/>
  <unicode hex="0059"/>
  <outline>
    <contour>
      <point x="240" y="329" type="line"/>
      <point x="240" y="149" type="line"/>
      <point x="100" y="149" type="line"/>
      <point x="100" y="329" type="line"/>
      <point x="-90" y="649" type="line"/>
      <point x="70" y="649" type="line"/>
      <point x="170" y="449" type="line"/>
      <point x="270" y="649" type="line"/>
      <point x="430" y="649" type="line"/>
    </contour>
  </outline>
</glyph>
<glyph name="e" format="1">
  <advance width="469"/>
  <unicode hex="0065"/>
  <outline>
    <contour>
      <point x="-60" y="341" type="curve" smooth="yes"/>
      <point x="-60" y="468"/>
      <point x="25" y="544"/>
      <point x="142" y="544" type="curve" smooth="yes"/>
      <point x="259" y="544"/>
      <point x="334" y="468"/>
      <point x="334" y="361" type="curve"/>
      <point x="92" y="272" type="line"/>
      <point x="108" y="252"/>
      <point x="131" y="239"/>
      <point x="162" y="239" type="curve" smooth="yes"/>
      <point x="205" y="239"/>
      <point x="232" y="263"/>
      <point x="254" y="297" type="curve"/>
      <point x="314" y="204" type="line"/>
      <point x="278" y="160"/>
      <point x="220" y="139"/>
      <point x="152" y="139" type="curve" smooth="yes"/>
      <point x="35" y="139"/>
      <point x="-60" y="214"/>
    </contour>
    <contour>
      <point x="218" y="415" type="line"/>
      <point x="203" y="435"/>
      <point x="179" y="448"/>
      <point x="145" y="448" type="curve" smooth="yes"/>
      <point x="90" y="448"/>
      <point x="68" y="402"/>
      <point x="65" y="357" type="curve"/>
    </contour>
  </outline>
</glyph>
<glyph name="k" format="1">
  <advance width="485"/>
  <unicode hex="006B"/>
  <outline>
    <contour>
      <point x="-60" y="149" type="line"/>
      <point x="-60" y="679" type="line"/>
      <point x="75" y="679" type="line"/>
      <point x="75" y="399" type="line"/>
      <point x="210" y="534" type="line"/>
      <point x="375" y="534" type="line"/>
      <point x="215" y="374" type="line"/>
      <point x="385" y="149" type="line"/>
      <point x="220" y="149" type="line"/>
      <point x="75" y="341" type="line"/>
      <point x="75" y="149" type="line"/>
    </contour>
  </outline>
</glyph>
<glyph name="l" format="1">
  <advance width="215"/>
  <unicode hex="006C"/>
  <outline>
    <contour>
      <point x="-60" y="149" type="line"/>
      <point x="-60" y="679" type="line"/>
      <point x="75" y="679" type="line"/>
      <point x="75" y="149" type="line"/>
    </contour>
  </outline>
</glyph>
<glyph name="m" format="1">
  <advance width="693"/>
  <unicode hex="006D"/>
  <outline>
    <contour>
      <point x="-60" y="149" type="line"/>
      <point x="-60" y="534" type="line"/>
      <point x="75" y="534" type="line"/>
      <point x="75" y="468" type="line"/>
      <point x="105" y="515"/>
      <point x="149" y="544"/>
      <point x="192" y="544" type="curve" smooth="yes"/>
      <point x="252" y="544"/>
      <point x="287" y="517"/>
      <point x="303" y="469" type="curve"/>
      <point x="339" y="515"/>
      <point x="389" y="544"/>
      <point x="431" y="544" type="curve" smooth="yes"/>
      <point x="518" y="544"/>
      <point x="553" y="488"/>
      <point x="553" y="391" type="curve" smooth="yes"/>
      <point x="553" y="149" type="line"/>
      <point x="418" y="149" type="line"/>
      <point x="418" y="361" type="line" smooth="yes"/>
      <point x="418" y="419"/>
      <point x="409" y="439"/>
      <point x="381" y="439" type="curve" smooth="yes"/>
      <point x="354" y="439"/>
      <point x="330" y="420"/>
      <point x="314" y="395" type="curve"/>
      <point x="314" y="313"/>
      <point x="314" y="231"/>
      <point x="314" y="149" type="curve"/>
      <point x="179" y="149" type="line"/>
      <point x="179" y="361" type="line" smooth="yes"/>
      <point x="179" y="419"/>
      <point x="170" y="439"/>
      <point x="142" y="439" type="curve" smooth="yes"/>
      <point x="115" y="439"/>
      <point x="91" y="420"/>
      <point x="75" y="395" type="curve"/>
      <point x="75" y="149" type="line"/>
    </contour>
  </outline>
</glyph>
<glyph name="o" format="1">
  <advance width="474"/>
  <unicode hex="006F"/>
  <outline>
    <contour>
      <point x="65" y="341" type="curve" smooth="yes"/>
      <point x="65" y="293"/>
      <point x="89" y="254"/>
      <point x="137" y="254" type="curve" smooth="yes"/>
      <point x="185" y="254"/>
      <point x="209" y="293"/>
      <point x="209" y="341" type="curve" smooth="yes"/>
      <point x="209" y="389"/>
      <point x="185" y="429"/>
      <point x="137" y="429" type="curve" smooth="yes"/>
      <point x="89" y="429"/>
      <point x="65" y="389"/>
    </contour>
    <contour>
      <point x="-65" y="341" type="curve" smooth="yes"/>
      <point x="-65" y="468"/>
      <point x="20" y="544"/>
      <point x="137" y="544" type="curve" smooth="yes"/>
      <point x="254" y="544"/>
      <point x="339" y="468"/>
      <point x="339" y="341" type="curve" smooth="yes"/>
      <point x="339" y="214"/>
      <point x="254" y="139"/>
      <point x="137" y="139" type="curve" smooth="yes"/>
      <point x="20" y="139"/>
      <point x="-65" y="224"/>
    </contour>
  </outline>
</glyph>
<glyph name="p" format="1">
  <advance width="499"/>
  <unicode hex="0070"/>
  <outline>
    <contour>
      <point x="-60" y="534" type="line"/>
      <point x="75" y="534" type="line"/>
      <point x="75" y="492" type="line"/>
      <point x="106" y="524"/>
      <point x="147" y="544"/>
      <point x="192" y="544" type="curve" smooth="yes"/>
      <point x="299" y="544"/>
      <point x="364" y="459"/>
      <point x="364" y="342" type="curve" smooth="yes"/>
      <point x="364" y="225"/>
      <point x="299" y="139"/>
      <point x="192" y="139" type="curve" smooth="yes"/>
      <point x="147" y="139"/>
      <point x="106" y="157"/>
      <point x="75" y="188" type="curve"/>
      <point x="75" y="4" type="line"/>
      <point x="-60" y="4" type="line"/>
    </contour>
    <contour>
      <point x="75" y="283" type="line"/>
      <point x="94" y="259"/>
      <point x="123" y="244"/>
      <point x="152" y="244" type="curve" smooth="yes"/>
      <point x="200" y="244"/>
      <point x="229" y="284"/>
      <point x="229" y="342" type="curve" smooth="yes"/>
      <point x="229" y="400"/>
      <point x="200" y="439"/>
      <point x="152" y="439" type="curve" smooth="yes"/>
      <point x="123" y="439"/>
      <point x="94" y="425"/>
      <point x="75" y="401" type="curve"/>
    </contour>
  </outline>
</glyph>
<glyph name="r" format="1">
  <advance width="374"/>
  <unicode hex="0072"/>
  <outline>
    <contour>
      <point x="274" y="471" type="curve"/>
      <point x="199" y="371" type="line"/>
      <point x="179" y="399"/>
      <point x="170" y="419"/>
      <point x="132" y="419" type="curve" smooth="yes"/>
      <point x="113" y="419"/>
      <point x="92" y="407"/>
      <point x="75" y="389" type="curve"/>
      <point x="75" y="149" type="line"/>
      <point x="-60" y="149" type="line"/>
      <point x="-60" y="534" type="line"/>
      <point x="55" y="534" type="line"/>
      <point x="64" y="459" type="line"/>
      <point x="93" y="507"/>
      <point x="135" y="539"/>
      <point x="172" y="539" type="curve" smooth="yes"/>
      <point x="229" y="539"/>
      <point x="254" y="498"/>
    </contour>
  </outline>
</glyph>
<glyph name="s" format="1">
  <advance width="374"/>
  <unicode hex="0073"/>
  <outline>
    <contour>
      <point x="114" y="261" type="curve" smooth="yes"/>
      <point x="114" y="311"/>
      <point x="-54" y="307"/>
      <point x="-54" y="427" type="curve" smooth="yes"/>
      <point x="-54" y="524"/>
      <point x="21" y="549"/>
      <point x="98" y="549" type="curve" smooth="yes"/>
      <point x="135" y="549"/>
      <point x="185" y="534"/>
      <point x="235" y="487" type="curve"/>
      <point x="195" y="397" type="line"/>
      <point x="155" y="435"/>
      <point x="127" y="449"/>
      <point x="109" y="449" type="curve" smooth="yes"/>
      <point x="91" y="449"/>
      <point x="81" y="440"/>
      <point x="81" y="427" type="curve" smooth="yes"/>
      <point x="81" y="377"/>
      <point x="249" y="375"/>
      <point x="249" y="271" type="curve" smooth="yes"/>
      <point x="249" y="174"/>
      <point x="164" y="134"/>
      <point x="87" y="134" type="curve" smooth="yes"/>
      <point x="20" y="134"/>
      <point x="-30" y="149"/>
      <point x="-80" y="196" type="curve"/>
      <point x="-40" y="286" type="line"/>
      <point x="0" y="248"/>
      <point x="49" y="234"/>
      <point x="67" y="234" type="curve" smooth="yes"/>
      <point x="95" y="234"/>
      <point x="114" y="240"/>
    </contour>
  </outline>
</glyph>
<glyph name="v" format="1">
  <advance width="465"/>
  <unicode hex="0076"/>
  <outline>
    <contour>
      <point x="60" y="149" type="line"/>
      <point x="-90" y="534" type="line"/>
      <point x="55" y="534" type="line"/>
      <point x="136" y="250" type="line"/>
      <point x="210" y="534" type="line"/>
      <point x="355" y="534" type="line"/>
      <point x="215" y="149" type="line"/>
    </contour>
  </outline>
</glyph>
<glyph name="x" format="1">
  <advance width="465"/>
  <unicode hex="0078"/>
  <outline>
    <contour>
      <point x="132" y="447" type="line"/>
      <point x="200" y="534" type="line"/>
      <point x="355" y="534" type="line"/>
      <point x="210" y="348" type="line"/>
      <point x="365" y="149" type="line"/>
      <point x="210" y="149" type="line"/>
      <point x="132" y="248" type="line"/>
      <point x="55" y="149" type="line"/>
      <point x="-100" y="149" type="line"/>
      <point x="55" y="348" type="line"/>
      <point x="-90" y="534" type="line"/>
      <point x="65" y="534" type="line"/>
    </contour>
  </outline>
</glyph>
<glyph name="y" format="1">
  <advance width="470"/>
  <unicode hex="0079"/>
  <outline>
    <contour>
      <point x="80" y="180" type="line"/>
      <point x="-90" y="534" type="line"/>
      <point x="65" y="534" type="line"/>
      <point x="139" y="331" type="line"/>
      <point x="220" y="534" type="line"/>
      <point x="360" y="534" type="line"/>
      <point x="140" y="4" type="line"/>
      <point x="10" y="4" type="line"/>
    </contour>
  </outline>
</glyph>
